<svg xmlns="http://www.w3.org/2000/svg" xmlns:xlink="http://www.w3.org/1999/xlink" width="500" zoomAndPan="magnify" viewBox="0 0 375 374.999991" height="500" preserveAspectRatio="xMidYMid meet" version="1.0"><defs><g/><clipPath id="92f4fb880e"><rect x="0" width="163" y="0" height="100"/></clipPath><clipPath id="41e7a55ff2"><rect x="0" width="129" y="0" height="90"/></clipPath><clipPath id="3eb53a42a5"><rect x="0" width="242" y="0" height="115"/></clipPath></defs><g transform="matrix(1, 0, 0, 1, 103, 79)"><g clip-path="url(#92f4fb880e)"><g fill="#00bf63" fill-opacity="1"><g transform="translate(0.49526, 75.63292)"><g><path d="M 59.203125 -61.4375 C 60.523438 -60.550781 61.363281 -59.378906 61.71875 -57.921875 C 62.082031 -56.460938 61.90625 -54.9375 61.1875 -53.34375 L 59.375 -49.21875 C 56.40625 -42.332031 53.414062 -35.476562 50.40625 -28.65625 C 47.40625 -21.832031 44.421875 -15.003906 41.453125 -8.171875 C 40.734375 -6.578125 40.019531 -5.3125 39.3125 -4.375 C 37.820312 -2.394531 35.976562 -1.347656 33.78125 -1.234375 C 31.570312 -1.179688 29.695312 -2.035156 28.15625 -3.796875 C 26.894531 -5.171875 25.710938 -6.988281 24.609375 -9.25 C 23.785156 -11.007812 22.957031 -12.769531 22.125 -14.53125 C 21.300781 -16.289062 20.476562 -18.050781 19.65625 -19.8125 C 18.832031 -21.632812 18.003906 -23.425781 17.171875 -25.1875 C 16.347656 -26.945312 15.523438 -28.707031 14.703125 -30.46875 C 13.929688 -32.0625 13.160156 -33.628906 12.390625 -35.171875 C 11.617188 -36.710938 10.847656 -38.253906 10.078125 -39.796875 C 9.359375 -41.117188 8.664062 -42.441406 8 -43.765625 C 7.34375 -45.085938 6.6875 -46.4375 6.03125 -47.8125 C 5.476562 -48.96875 4.953125 -50.109375 4.453125 -51.234375 C 3.960938 -52.367188 3.578125 -53.515625 3.296875 -54.671875 C 2.585938 -57.640625 3.359375 -59.757812 5.609375 -61.03125 C 6.378906 -61.414062 7.207031 -61.609375 8.09375 -61.609375 C 9.738281 -61.609375 11.171875 -60.863281 12.390625 -59.375 C 14.585938 -56.5625 16.757812 -53.765625 18.90625 -50.984375 C 21.050781 -48.210938 23.035156 -45.335938 24.859375 -42.359375 C 26.015625 -40.597656 27.070312 -38.78125 28.03125 -36.90625 C 29 -35.039062 29.953125 -33.085938 30.890625 -31.046875 C 31.328125 -30.109375 31.78125 -29.171875 32.25 -28.234375 C 32.71875 -27.304688 33.195312 -26.375 33.6875 -25.4375 L 34.59375 -23.703125 L 36.328125 -28 C 36.660156 -28.707031 36.960938 -29.390625 37.234375 -30.046875 C 37.515625 -30.710938 37.789062 -31.378906 38.0625 -32.046875 C 38.445312 -32.972656 38.832031 -33.90625 39.21875 -34.84375 C 39.601562 -35.78125 39.988281 -36.71875 40.375 -37.65625 C 41.363281 -40.132812 42.394531 -42.625 43.46875 -45.125 C 44.550781 -47.632812 45.640625 -50.128906 46.734375 -52.609375 C 47.835938 -55.078125 49.296875 -57.5 51.109375 -59.875 C 52.160156 -61.1875 53.441406 -61.976562 54.953125 -62.25 C 56.472656 -62.53125 57.890625 -62.257812 59.203125 -61.4375 Z M 59.203125 -61.4375 "/></g></g></g><g fill="#00bf63" fill-opacity="1"><g transform="translate(62.674515, 75.63292)"><g><path d="M 15.359375 -35.265625 C 15.359375 -34.328125 15.359375 -32.960938 15.359375 -31.171875 C 15.359375 -29.378906 15.34375 -27.460938 15.3125 -25.421875 C 15.289062 -23.390625 15.265625 -21.546875 15.234375 -19.890625 C 15.203125 -18.242188 15.1875 -17.09375 15.1875 -16.4375 C 15.132812 -15.601562 15.066406 -14.773438 14.984375 -13.953125 C 14.898438 -13.128906 14.773438 -12.304688 14.609375 -11.484375 C 14.222656 -9.273438 13.453125 -7.578125 12.296875 -6.390625 C 11.140625 -5.210938 9.820312 -4.679688 8.34375 -4.796875 C 6.851562 -4.898438 5.554688 -5.582031 4.453125 -6.84375 C 3.359375 -8.113281 2.921875 -9.820312 3.140625 -11.96875 C 3.472656 -16.039062 3.96875 -20.097656 4.625 -24.140625 C 5.28125 -28.191406 5.96875 -32.253906 6.6875 -36.328125 C 6.90625 -37.429688 7.441406 -38.3125 8.296875 -38.96875 C 9.148438 -39.632812 10.210938 -39.882812 11.484375 -39.71875 C 12.742188 -39.613281 13.691406 -39.132812 14.328125 -38.28125 C 14.960938 -37.425781 15.304688 -36.421875 15.359375 -35.265625 Z M 9.171875 -46.828125 C 7.847656 -46.878906 6.726562 -47.410156 5.8125 -48.421875 C 4.90625 -49.441406 4.453125 -50.671875 4.453125 -52.109375 C 4.453125 -53.535156 4.945312 -54.757812 5.9375 -55.78125 C 6.9375 -56.800781 8.148438 -57.3125 9.578125 -57.3125 C 10.953125 -57.3125 12.117188 -56.828125 13.078125 -55.859375 C 14.046875 -54.898438 14.503906 -53.703125 14.453125 -52.265625 C 14.453125 -50.785156 13.914062 -49.492188 12.84375 -48.390625 C 11.769531 -47.285156 10.546875 -46.765625 9.171875 -46.828125 Z M 9.171875 -46.828125 "/></g></g></g><g fill="#00bf63" fill-opacity="1"><g transform="translate(81.171397, 75.63292)"><g><path d="M 35.59375 -39.96875 C 37.6875 -37.820312 38.894531 -35.492188 39.21875 -32.984375 C 39.550781 -30.484375 39.054688 -28.171875 37.734375 -26.046875 C 36.410156 -23.929688 34.347656 -22.378906 31.546875 -21.390625 C 29.285156 -20.617188 26.929688 -20.082031 24.484375 -19.78125 C 22.035156 -19.476562 19.515625 -19.078125 16.921875 -18.578125 C 17.691406 -18.359375 18.4375 -18.125 19.15625 -17.875 C 19.875 -17.625 20.59375 -17.445312 21.3125 -17.34375 C 22.738281 -17.0625 24.179688 -16.851562 25.640625 -16.71875 C 27.097656 -16.582031 28.515625 -16.296875 29.890625 -15.859375 C 31.867188 -15.191406 33.066406 -14.070312 33.484375 -12.5 C 33.898438 -10.9375 33.363281 -9.410156 31.875 -7.921875 C 31.101562 -7.097656 30.140625 -6.367188 28.984375 -5.734375 C 27.828125 -5.109375 26.695312 -4.738281 25.59375 -4.625 C 20.53125 -4.125 16.265625 -4.769531 12.796875 -6.5625 C 9.328125 -8.351562 6.765625 -10.898438 5.109375 -14.203125 C 3.460938 -17.503906 2.804688 -21.191406 3.140625 -25.265625 C 3.359375 -27.796875 3.796875 -30.234375 4.453125 -32.578125 C 5.117188 -34.921875 6.164062 -37.164062 7.59375 -39.3125 C 9.414062 -42.113281 11.753906 -44.132812 14.609375 -45.375 C 17.472656 -46.613281 20.554688 -46.90625 23.859375 -46.25 C 28.546875 -45.414062 32.457031 -43.320312 35.59375 -39.96875 Z M 28.328125 -32.046875 C 28.429688 -32.046875 28.550781 -32.082031 28.6875 -32.15625 C 28.832031 -32.238281 29.015625 -32.335938 29.234375 -32.453125 C 28.179688 -33.941406 26.867188 -35 25.296875 -35.625 C 23.734375 -36.257812 22.265625 -36.382812 20.890625 -36 C 19.628906 -35.613281 18.691406 -34.96875 18.078125 -34.0625 C 17.472656 -33.15625 17.007812 -32.066406 16.6875 -30.796875 C 18.71875 -31.015625 20.695312 -31.21875 22.625 -31.40625 C 24.550781 -31.601562 26.453125 -31.816406 28.328125 -32.046875 Z M 28.328125 -32.046875 "/></g></g></g><g fill="#00bf63" fill-opacity="1"><g transform="translate(123.615132, 75.63292)"><g><path d="M 34.515625 -14.375 C 34.953125 -13.101562 34.976562 -11.941406 34.59375 -10.890625 C 34.207031 -9.847656 33.550781 -8.890625 32.625 -8.015625 C 31.238281 -6.742188 29.5 -5.890625 27.40625 -5.453125 C 25.320312 -5.015625 23.175781 -4.972656 20.96875 -5.328125 C 18.769531 -5.679688 16.875 -6.492188 15.28125 -7.765625 C 11.425781 -10.679688 9.25 -14.5625 8.75 -19.40625 C 8.53125 -21.0625 8.394531 -22.738281 8.34375 -24.4375 C 8.289062 -26.144531 8.234375 -27.828125 8.171875 -29.484375 C 8.171875 -30.304688 8.046875 -30.976562 7.796875 -31.5 C 7.554688 -32.019531 7.050781 -32.421875 6.28125 -32.703125 C 5.175781 -33.140625 4.304688 -33.769531 3.671875 -34.59375 C 3.035156 -35.425781 2.882812 -36.390625 3.21875 -37.484375 C 3.5 -38.316406 3.984375 -39.128906 4.671875 -39.921875 C 5.359375 -40.722656 6.085938 -41.257812 6.859375 -41.53125 C 7.847656 -41.976562 8.601562 -42.472656 9.125 -43.015625 C 9.644531 -43.566406 9.929688 -44.394531 9.984375 -45.5 C 10.046875 -46.488281 10.171875 -47.460938 10.359375 -48.421875 C 10.554688 -49.390625 10.738281 -50.367188 10.90625 -51.359375 C 11.507812 -54.722656 12.96875 -56.375 15.28125 -56.3125 C 17.644531 -56.257812 19.078125 -54.554688 19.578125 -51.203125 C 19.734375 -50.046875 19.828125 -48.875 19.859375 -47.6875 C 19.890625 -46.5 19.90625 -45.328125 19.90625 -44.171875 C 19.90625 -42.628906 20.675781 -41.832031 22.21875 -41.78125 C 23.207031 -41.726562 24.195312 -41.660156 25.1875 -41.578125 C 26.175781 -41.492188 27.140625 -41.34375 28.078125 -41.125 C 29.617188 -40.738281 30.800781 -39.953125 31.625 -38.765625 C 32.445312 -37.585938 32.804688 -36.3125 32.703125 -34.9375 C 32.585938 -33.5 32.003906 -32.269531 30.953125 -31.25 C 29.910156 -30.238281 28.617188 -29.675781 27.078125 -29.5625 C 25.984375 -29.445312 24.84375 -29.40625 23.65625 -29.4375 C 22.476562 -29.46875 21.117188 -29.484375 19.578125 -29.484375 C 19.796875 -27.828125 19.984375 -26.160156 20.140625 -24.484375 C 20.304688 -22.804688 20.53125 -21.140625 20.8125 -19.484375 C 21.03125 -18.492188 21.507812 -17.78125 22.25 -17.34375 C 23 -16.90625 23.867188 -16.738281 24.859375 -16.84375 C 25.515625 -16.957031 26.160156 -17.082031 26.796875 -17.21875 C 27.429688 -17.351562 28.078125 -17.445312 28.734375 -17.5 C 30.003906 -17.613281 31.144531 -17.4375 32.15625 -16.96875 C 33.175781 -16.5 33.960938 -15.632812 34.515625 -14.375 Z M 34.515625 -14.375 "/></g></g></g></g></g><g transform="matrix(1, 0, 0, 1, 124, 128)"><g clip-path="url(#41e7a55ff2)"><g fill="#00bf63" fill-opacity="1"><g transform="translate(2.95132, 69.43825)"><g><path d="M 26.34375 -21.4375 C 28.59375 -19.46875 29.941406 -17.34375 30.390625 -15.0625 C 30.835938 -12.789062 30.46875 -10.644531 29.28125 -8.625 C 28.09375 -6.601562 26.125 -5.023438 23.375 -3.890625 C 22.0625 -3.328125 20.675781 -2.867188 19.21875 -2.515625 C 17.757812 -2.160156 16.34375 -2.003906 14.96875 -2.046875 C 13.695312 -2.097656 12.398438 -2.347656 11.078125 -2.796875 C 9.765625 -3.253906 8.53125 -3.820312 7.375 -4.5 C 6.019531 -5.3125 5.144531 -6.40625 4.75 -7.78125 C 4.351562 -9.164062 4.394531 -10.457031 4.875 -11.65625 C 5.363281 -12.8125 6.195312 -13.664062 7.375 -14.21875 C 8.5625 -14.769531 9.96875 -14.984375 11.59375 -14.859375 C 12.726562 -14.765625 13.847656 -14.6875 14.953125 -14.625 C 16.066406 -14.5625 17.171875 -14.5 18.265625 -14.4375 C 18.304688 -14.582031 18.347656 -14.722656 18.390625 -14.859375 C 18.429688 -15.003906 18.472656 -15.171875 18.515625 -15.359375 C 17.648438 -15.617188 16.773438 -15.875 15.890625 -16.125 C 15.015625 -16.375 14.171875 -16.675781 13.359375 -17.03125 C 11.921875 -17.6875 10.476562 -18.328125 9.03125 -18.953125 C 7.59375 -19.578125 6.289062 -20.363281 5.125 -21.3125 C 3.226562 -22.8125 2.128906 -24.617188 1.828125 -26.734375 C 1.523438 -28.859375 1.878906 -31.003906 2.890625 -33.171875 C 3.921875 -35.285156 5.453125 -37.0625 7.484375 -38.5 C 9.515625 -39.945312 11.738281 -40.945312 14.15625 -41.5 C 16.570312 -42.050781 18.90625 -42.003906 21.15625 -41.359375 C 22.875 -40.890625 24.289062 -40.117188 25.40625 -39.046875 C 26.53125 -37.972656 27.222656 -36.5625 27.484375 -34.8125 C 27.597656 -34.113281 27.535156 -33.359375 27.296875 -32.546875 C 27.066406 -31.734375 26.722656 -31.035156 26.265625 -30.453125 C 25.722656 -29.722656 25.046875 -29.4375 24.234375 -29.59375 C 23.429688 -29.757812 22.640625 -30.019531 21.859375 -30.375 C 20.117188 -31.269531 18.582031 -31.578125 17.25 -31.296875 C 15.914062 -31.015625 14.640625 -30.097656 13.421875 -28.546875 C 14.023438 -28.285156 14.59375 -28.039062 15.125 -27.8125 C 15.65625 -27.59375 16.160156 -27.347656 16.640625 -27.078125 C 18.285156 -26.179688 19.972656 -25.3125 21.703125 -24.46875 C 23.429688 -23.632812 24.976562 -22.625 26.34375 -21.4375 Z M 26.34375 -21.4375 "/></g></g></g><g fill="#00bf63" fill-opacity="1"><g transform="translate(36.623569, 68.343425)"><g><path d="M 12.203125 -30.703125 C 12.234375 -29.890625 12.269531 -28.710938 12.3125 -27.171875 C 12.363281 -25.640625 12.40625 -24 12.4375 -22.25 C 12.476562 -20.5 12.507812 -18.914062 12.53125 -17.5 C 12.550781 -16.082031 12.570312 -15.09375 12.59375 -14.53125 C 12.570312 -13.820312 12.535156 -13.113281 12.484375 -12.40625 C 12.429688 -11.695312 12.351562 -10.984375 12.25 -10.265625 C 11.96875 -8.359375 11.347656 -6.878906 10.390625 -5.828125 C 9.429688 -4.785156 8.3125 -4.289062 7.03125 -4.34375 C 5.75 -4.394531 4.613281 -4.945312 3.625 -6 C 2.644531 -7.0625 2.226562 -8.519531 2.375 -10.375 C 2.539062 -13.863281 2.847656 -17.359375 3.296875 -20.859375 C 3.753906 -24.359375 4.234375 -27.867188 4.734375 -31.390625 C 4.890625 -32.335938 5.328125 -33.101562 6.046875 -33.6875 C 6.765625 -34.28125 7.664062 -34.523438 8.75 -34.421875 C 9.832031 -34.367188 10.660156 -33.984375 11.234375 -33.265625 C 11.804688 -32.546875 12.128906 -31.691406 12.203125 -30.703125 Z M 6.5625 -40.453125 C 5.425781 -40.472656 4.453125 -40.90625 3.640625 -41.75 C 2.835938 -42.601562 2.414062 -43.640625 2.375 -44.859375 C 2.332031 -46.085938 2.722656 -47.148438 3.546875 -48.046875 C 4.378906 -48.953125 5.410156 -49.425781 6.640625 -49.46875 C 7.816406 -49.507812 8.832031 -49.128906 9.6875 -48.328125 C 10.539062 -47.523438 10.960938 -46.507812 10.953125 -45.28125 C 10.992188 -44.007812 10.566406 -42.882812 9.671875 -41.90625 C 8.785156 -40.9375 7.75 -40.453125 6.5625 -40.453125 Z M 6.5625 -40.453125 "/></g></g></g><g fill="#00bf63" fill-opacity="1"><g transform="translate(52.502697, 67.827129)"><g><path d="M 31.28125 -31.390625 C 31.59375 -27.429688 31.894531 -23.429688 32.1875 -19.390625 C 32.488281 -15.359375 32.660156 -11.351562 32.703125 -7.375 C 32.691406 -4.539062 32.1875 -1.828125 31.1875 0.765625 C 30.1875 3.359375 28.769531 5.769531 26.9375 8 C 25.613281 9.65625 24.109375 11.03125 22.421875 12.125 C 20.734375 13.226562 18.804688 13.921875 16.640625 14.203125 C 15.273438 14.441406 14.007812 14.378906 12.84375 14.015625 C 11.675781 13.660156 10.671875 12.878906 9.828125 11.671875 C 8.773438 10.097656 8.648438 8.515625 9.453125 6.921875 C 10.253906 5.335938 11.753906 4.132812 13.953125 3.3125 C 15.484375 2.6875 16.921875 1.644531 18.265625 0.1875 C 19.617188 -1.269531 20.710938 -2.9375 21.546875 -4.8125 C 22.390625 -6.6875 22.804688 -8.5 22.796875 -10.25 C 22.609375 -10.195312 22.445312 -10.144531 22.3125 -10.09375 C 22.175781 -10.050781 22.035156 -9.976562 21.890625 -9.875 C 19.484375 -8.269531 17.097656 -7.523438 14.734375 -7.640625 C 12.367188 -7.765625 10.046875 -8.664062 7.765625 -10.34375 C 5.378906 -12.0625 3.707031 -14.226562 2.75 -16.84375 C 1.789062 -19.457031 1.671875 -22.125 2.390625 -24.84375 C 3.316406 -28.332031 4.914062 -31.148438 7.1875 -33.296875 C 9.46875 -35.453125 12.265625 -37.0625 15.578125 -38.125 C 18.472656 -39.070312 21.28125 -38.710938 24 -37.046875 C 24.28125 -36.867188 24.585938 -36.710938 24.921875 -36.578125 C 25.253906 -36.453125 25.613281 -36.34375 26 -36.25 C 27.613281 -36.019531 28.859375 -35.550781 29.734375 -34.84375 C 30.617188 -34.144531 31.132812 -32.992188 31.28125 -31.390625 Z M 16.546875 -19.203125 C 18.023438 -20.328125 19.238281 -21.617188 20.1875 -23.078125 C 21.132812 -24.535156 21.691406 -26.234375 21.859375 -28.171875 C 20.953125 -28.390625 19.992188 -28.3125 18.984375 -27.9375 C 17.984375 -27.570312 17.054688 -27.019531 16.203125 -26.28125 C 15.359375 -25.550781 14.675781 -24.738281 14.15625 -23.84375 C 13.644531 -22.945312 13.457031 -22.078125 13.59375 -21.234375 C 13.707031 -20.378906 14.078125 -19.726562 14.703125 -19.28125 C 15.328125 -18.832031 15.941406 -18.804688 16.546875 -19.203125 Z M 16.546875 -19.203125 "/></g></g></g><g fill="#00bf63" fill-opacity="1"><g transform="translate(88.088949, 66.670072)"><g><path d="M 31.6875 -31.765625 C 34.0625 -28.765625 35.550781 -25.546875 36.15625 -22.109375 C 36.757812 -18.671875 36.84375 -15.125 36.40625 -11.46875 C 36.207031 -10.050781 35.644531 -8.925781 34.71875 -8.09375 C 33.800781 -7.257812 32.753906 -6.796875 31.578125 -6.703125 C 30.347656 -6.617188 29.191406 -6.914062 28.109375 -7.59375 C 27.023438 -8.269531 26.296875 -9.3125 25.921875 -10.71875 C 25.429688 -12.351562 25.066406 -14.015625 24.828125 -15.703125 C 24.585938 -17.398438 24.316406 -19.09375 24.015625 -20.78125 C 23.910156 -21.394531 23.785156 -22.03125 23.640625 -22.6875 C 23.492188 -23.34375 23.34375 -24.125 23.1875 -25.03125 C 22.675781 -24.582031 22.234375 -24.207031 21.859375 -23.90625 C 21.492188 -23.613281 21.195312 -23.300781 20.96875 -22.96875 C 19.46875 -20.925781 18.125 -18.8125 16.9375 -16.625 C 15.757812 -14.4375 14.90625 -12.082031 14.375 -9.5625 C 14.019531 -7.75 13.25 -6.363281 12.0625 -5.40625 C 10.882812 -4.445312 9.519531 -4.007812 7.96875 -4.09375 C 6.394531 -4.226562 5.054688 -4.859375 3.953125 -5.984375 C 2.847656 -7.109375 2.289062 -8.59375 2.28125 -10.4375 C 2.269531 -13.695312 2.316406 -16.945312 2.421875 -20.1875 C 2.535156 -23.4375 2.679688 -26.695312 2.859375 -29.96875 C 2.910156 -31.15625 3.179688 -32.242188 3.671875 -33.234375 C 4.160156 -34.222656 5.140625 -34.765625 6.609375 -34.859375 C 7.929688 -34.941406 8.910156 -34.566406 9.546875 -33.734375 C 10.191406 -32.910156 10.703125 -31.9375 11.078125 -30.8125 C 11.117188 -30.613281 11.191406 -30.421875 11.296875 -30.234375 C 11.398438 -30.054688 11.507812 -29.800781 11.625 -29.46875 C 12.4375 -30.207031 13.195312 -30.929688 13.90625 -31.640625 C 14.613281 -32.347656 15.335938 -32.976562 16.078125 -33.53125 C 18.703125 -35.550781 21.441406 -36.40625 24.296875 -36.09375 C 27.148438 -35.789062 29.613281 -34.347656 31.6875 -31.765625 Z M 31.6875 -31.765625 "/></g></g></g></g></g><g transform="matrix(1, 0, 0, 1, 68, 177)"><g clip-path="url(#3eb53a42a5)"><g fill="#00bf63" fill-opacity="1"><g transform="translate(2.220668, 79.874082)"><g><path d="M 47.546875 -19 C 48.421875 -14.832031 47.945312 -11.160156 46.125 -7.984375 C 44.300781 -4.804688 41.453125 -2.660156 37.578125 -1.546875 C 33.203125 -0.222656 27.992188 0.429688 21.953125 0.421875 C 19.222656 0.410156 16.828125 -0.316406 14.765625 -1.765625 C 12.703125 -3.222656 11.0625 -4.675781 9.84375 -6.125 C 8.53125 -7.75 7.75 -9.46875 7.5 -11.28125 C 7.257812 -13.09375 7.609375 -14.707031 8.546875 -16.125 C 10.035156 -18.5 12.378906 -19.617188 15.578125 -19.484375 C 16.441406 -19.441406 17.304688 -19.320312 18.171875 -19.125 C 18.503906 -18.988281 18.875 -18.867188 19.28125 -18.765625 C 19.6875 -18.660156 20.0625 -18.546875 20.40625 -18.421875 C 21.945312 -17.878906 23.523438 -17.425781 25.140625 -17.0625 C 26.753906 -16.707031 28.472656 -16.753906 30.296875 -17.203125 L 33.21875 -17.953125 L 32.8125 -18.921875 C 32.125 -20.753906 31.101562 -22.125 29.75 -23.03125 C 28.394531 -23.9375 26.976562 -24.648438 25.5 -25.171875 C 19.59375 -27.222656 14.332031 -30.789062 9.71875 -35.875 C 6.332031 -39.625 4.847656 -43.722656 5.265625 -48.171875 C 5.691406 -52.578125 7.851562 -56.242188 11.75 -59.171875 C 19.207031 -64.785156 27.441406 -66.316406 36.453125 -63.765625 C 40.484375 -62.671875 43.410156 -60.488281 45.234375 -57.21875 C 45.941406 -55.851562 46.320312 -54.378906 46.375 -52.796875 C 46.351562 -52.335938 46.269531 -51.816406 46.125 -51.234375 C 45.988281 -50.660156 45.710938 -50.238281 45.296875 -49.96875 C 44.585938 -49.476562 43.515625 -49.554688 42.078125 -50.203125 C 40.367188 -50.972656 38.273438 -51.710938 35.796875 -52.421875 C 33.328125 -53.140625 30.6875 -53.238281 27.875 -52.71875 C 26.53125 -52.488281 25.222656 -52.109375 23.953125 -51.578125 C 22.679688 -51.046875 21.507812 -50.484375 20.4375 -49.890625 C 19.1875 -49.242188 18.535156 -48.367188 18.484375 -47.265625 C 18.441406 -46.160156 18.988281 -45.207031 20.125 -44.40625 L 21.984375 -43.1875 C 23.515625 -42.195312 25.054688 -41.21875 26.609375 -40.25 C 28.171875 -39.289062 29.773438 -38.425781 31.421875 -37.65625 C 40.554688 -33.539062 45.929688 -27.320312 47.546875 -19 Z M 47.546875 -19 "/></g></g></g><g fill="#00bf63" fill-opacity="1"><g transform="translate(49.838672, 81.896198)"><g><path d="M 26.46875 -15.453125 C 26.46875 -15.390625 26.46875 -15.359375 26.46875 -15.359375 C 28.207031 -15.398438 29.953125 -15.457031 31.703125 -15.53125 C 33.453125 -15.601562 35.164062 -15.578125 36.84375 -15.453125 C 37.488281 -15.421875 38.191406 -15.195312 38.953125 -14.78125 C 39.722656 -14.375 40.160156 -13.929688 40.265625 -13.453125 C 40.410156 -12.816406 40.347656 -12.066406 40.078125 -11.203125 C 39.804688 -10.347656 39.398438 -9.753906 38.859375 -9.421875 C 35.566406 -7.015625 32.109375 -5.25 28.484375 -4.125 C 24.859375 -3 20.972656 -2.988281 16.828125 -4.09375 C 12.910156 -5.070312 9.800781 -7.117188 7.5 -10.234375 C 5.195312 -13.359375 4.066406 -16.953125 4.109375 -21.015625 C 4.160156 -24.734375 4.910156 -28.265625 6.359375 -31.609375 C 7.804688 -34.953125 9.789062 -37.890625 12.3125 -40.421875 C 14.832031 -42.953125 17.75 -44.847656 21.0625 -46.109375 C 23.070312 -46.898438 25.078125 -47.265625 27.078125 -47.203125 C 29.078125 -47.148438 31.035156 -46.472656 32.953125 -45.171875 C 34.710938 -43.929688 36.039062 -42.242188 36.9375 -40.109375 C 37.84375 -37.984375 37.875 -36.007812 37.03125 -34.1875 C 36.53125 -33.101562 36.054688 -32.554688 35.609375 -32.546875 C 35.171875 -32.535156 34.71875 -32.425781 34.25 -32.21875 C 33.539062 -31.84375 32.898438 -31.820312 32.328125 -32.15625 C 31.753906 -32.5 31.332031 -32.914062 31.0625 -33.40625 C 29.914062 -35.132812 28.859375 -36.238281 27.890625 -36.71875 C 26.929688 -37.195312 25.609375 -36.828125 23.921875 -35.609375 C 21.523438 -33.910156 19.765625 -31.847656 18.640625 -29.421875 C 17.523438 -26.992188 16.878906 -24.394531 16.703125 -21.625 C 16.628906 -20.050781 17.007812 -18.738281 17.84375 -17.6875 C 18.675781 -16.632812 19.898438 -15.957031 21.515625 -15.65625 C 22.316406 -15.5 23.140625 -15.429688 23.984375 -15.453125 C 24.835938 -15.484375 25.664062 -15.484375 26.46875 -15.453125 Z M 26.46875 -15.453125 "/></g></g></g><g fill="#00bf63" fill-opacity="1"><g transform="translate(90.057099, 83.604089)"><g><path d="M 45.953125 -20.5625 C 46.273438 -18.445312 46.046875 -16.460938 45.265625 -14.609375 C 44.484375 -12.753906 43.394531 -11.007812 42 -9.375 C 40.71875 -7.914062 39.269531 -7.320312 37.65625 -7.59375 C 36.039062 -7.863281 34.921875 -8.941406 34.296875 -10.828125 C 33.941406 -11.898438 33.6875 -13.035156 33.53125 -14.234375 C 33.375 -15.429688 33.234375 -16.613281 33.109375 -17.78125 C 32.941406 -19.363281 32.816406 -20.9375 32.734375 -22.5 C 32.660156 -24.070312 32.546875 -25.644531 32.390625 -27.21875 C 32.285156 -27.925781 32.085938 -28.632812 31.796875 -29.34375 C 31.515625 -30.050781 31.222656 -30.878906 30.921875 -31.828125 C 28.867188 -30.171875 27.253906 -28.4375 26.078125 -26.625 C 24.898438 -24.820312 24.113281 -22.765625 23.71875 -20.453125 C 23.414062 -18.722656 23.050781 -17.019531 22.625 -15.34375 C 22.207031 -13.675781 21.707031 -12.039062 21.125 -10.4375 C 20.59375 -8.945312 19.753906 -7.804688 18.609375 -7.015625 C 17.472656 -6.222656 16.09375 -5.859375 14.46875 -5.921875 C 12.894531 -6.054688 11.578125 -6.566406 10.515625 -7.453125 C 9.453125 -8.335938 8.773438 -9.476562 8.484375 -10.875 C 8.003906 -13.175781 7.578125 -15.46875 7.203125 -17.75 C 6.835938 -20.03125 6.59375 -22.335938 6.46875 -24.671875 C 6.238281 -30.316406 6.082031 -35.988281 6 -41.6875 C 5.925781 -47.394531 5.832031 -53.070312 5.71875 -58.71875 C 5.707031 -59.8125 5.8125 -60.890625 6.03125 -61.953125 C 6.25 -63.023438 6.472656 -64.109375 6.703125 -65.203125 C 7.117188 -66.941406 7.859375 -68.28125 8.921875 -69.21875 C 9.984375 -70.164062 11.175781 -70.609375 12.5 -70.546875 C 13.832031 -70.492188 15.003906 -70.007812 16.015625 -69.09375 C 17.023438 -68.175781 17.695312 -66.867188 18.03125 -65.171875 C 18.644531 -61.890625 19.1875 -58.609375 19.65625 -55.328125 C 20.132812 -52.054688 20.65625 -48.78125 21.21875 -45.5 C 21.300781 -44.726562 21.410156 -43.945312 21.546875 -43.15625 C 21.679688 -42.375 21.847656 -41.578125 22.046875 -40.765625 C 22.703125 -40.847656 23.03125 -40.890625 23.03125 -40.890625 C 27.65625 -43.191406 31.671875 -43.734375 35.078125 -42.515625 C 38.484375 -41.296875 41.132812 -38.289062 43.03125 -33.5 C 43.8125 -31.425781 44.429688 -29.285156 44.890625 -27.078125 C 45.347656 -24.878906 45.703125 -22.707031 45.953125 -20.5625 Z M 45.953125 -20.5625 "/></g></g></g><g fill="#00bf63" fill-opacity="1"><g transform="translate(135.672857, 85.541179)"><g><path d="M 32.46875 -39.609375 C 35.070312 -39.097656 37.296875 -38.0625 39.140625 -36.5 C 40.992188 -34.9375 42.332031 -33.03125 43.15625 -30.78125 C 43.988281 -28.539062 44.15625 -26.125 43.65625 -23.53125 C 43.113281 -20.414062 42.160156 -17.53125 40.796875 -14.875 C 39.429688 -12.226562 37.570312 -9.847656 35.21875 -7.734375 C 31.34375 -4.304688 26.769531 -2.734375 21.5 -3.015625 C 19.707031 -3.492188 17.90625 -3.929688 16.09375 -4.328125 C 14.28125 -4.722656 12.515625 -5.25 10.796875 -5.90625 C 7.429688 -7.269531 5.019531 -9.316406 3.5625 -12.046875 C 2.113281 -14.785156 1.726562 -17.945312 2.40625 -21.53125 C 3.21875 -25.726562 4.804688 -29.363281 7.171875 -32.4375 C 9.546875 -35.507812 12.609375 -38.070312 16.359375 -40.125 C 19.566406 -41.832031 22.953125 -42.128906 26.515625 -41.015625 C 27.484375 -40.679688 28.472656 -40.40625 29.484375 -40.1875 C 30.492188 -39.96875 31.488281 -39.773438 32.46875 -39.609375 Z M 29.234375 -22.921875 C 30.015625 -24.984375 29.5625 -26.660156 27.875 -27.953125 C 26.300781 -29.171875 25.082031 -29.957031 24.21875 -30.3125 C 23.363281 -30.675781 22.570312 -30.566406 21.84375 -29.984375 C 21.125 -29.398438 20.179688 -28.320312 19.015625 -26.75 C 18.648438 -26.238281 18.34375 -25.816406 18.09375 -25.484375 C 16.28125 -22.597656 15.664062 -20.546875 16.25 -19.328125 C 16.832031 -18.117188 18.8125 -17.351562 22.1875 -17.03125 C 23.914062 -16.894531 25.273438 -17.253906 26.265625 -18.109375 C 27.265625 -18.972656 28.253906 -20.578125 29.234375 -22.921875 Z M 29.234375 -22.921875 "/></g></g></g><g fill="#00bf63" fill-opacity="1"><g transform="translate(177.632366, 87.323005)"><g><path d="M 32.46875 -39.609375 C 35.070312 -39.097656 37.296875 -38.0625 39.140625 -36.5 C 40.992188 -34.9375 42.332031 -33.03125 43.15625 -30.78125 C 43.988281 -28.539062 44.15625 -26.125 43.65625 -23.53125 C 43.113281 -20.414062 42.160156 -17.53125 40.796875 -14.875 C 39.429688 -12.226562 37.570312 -9.847656 35.21875 -7.734375 C 31.34375 -4.304688 26.769531 -2.734375 21.5 -3.015625 C 19.707031 -3.492188 17.90625 -3.929688 16.09375 -4.328125 C 14.28125 -4.722656 12.515625 -5.25 10.796875 -5.90625 C 7.429688 -7.269531 5.019531 -9.316406 3.5625 -12.046875 C 2.113281 -14.785156 1.726562 -17.945312 2.40625 -21.53125 C 3.21875 -25.726562 4.804688 -29.363281 7.171875 -32.4375 C 9.546875 -35.507812 12.609375 -38.070312 16.359375 -40.125 C 19.566406 -41.832031 22.953125 -42.128906 26.515625 -41.015625 C 27.484375 -40.679688 28.472656 -40.40625 29.484375 -40.1875 C 30.492188 -39.96875 31.488281 -39.773438 32.46875 -39.609375 Z M 29.234375 -22.921875 C 30.015625 -24.984375 29.5625 -26.660156 27.875 -27.953125 C 26.300781 -29.171875 25.082031 -29.957031 24.21875 -30.3125 C 23.363281 -30.675781 22.570312 -30.566406 21.84375 -29.984375 C 21.125 -29.398438 20.179688 -28.320312 19.015625 -26.75 C 18.648438 -26.238281 18.34375 -25.816406 18.09375 -25.484375 C 16.28125 -22.597656 15.664062 -20.546875 16.25 -19.328125 C 16.832031 -18.117188 18.8125 -17.351562 22.1875 -17.03125 C 23.914062 -16.894531 25.273438 -17.253906 26.265625 -18.109375 C 27.265625 -18.972656 28.253906 -20.578125 29.234375 -22.921875 Z M 29.234375 -22.921875 "/></g></g></g><g fill="#00bf63" fill-opacity="1"><g transform="translate(219.591875, 89.104831)"><g><path d="M 18.03125 -54.96875 C 18.195312 -49.257812 18.363281 -43.550781 18.53125 -37.84375 C 18.695312 -32.132812 18.769531 -26.441406 18.75 -20.765625 C 18.738281 -18.890625 18.546875 -17 18.171875 -15.09375 C 17.796875 -13.195312 17.335938 -11.332031 16.796875 -9.5 C 16.316406 -7.832031 15.460938 -6.601562 14.234375 -5.8125 C 13.015625 -5.019531 11.738281 -4.648438 10.40625 -4.703125 C 9.019531 -4.828125 7.804688 -5.375 6.765625 -6.34375 C 5.734375 -7.320312 5.023438 -8.660156 4.640625 -10.359375 C 4.390625 -11.410156 4.210938 -12.476562 4.109375 -13.5625 C 4.015625 -14.644531 3.957031 -15.738281 3.9375 -16.84375 C 3.976562 -17.820312 4.066406 -19.585938 4.203125 -22.140625 C 4.347656 -24.691406 4.535156 -27.632812 4.765625 -30.96875 C 4.992188 -34.300781 5.238281 -37.707031 5.5 -41.1875 C 5.769531 -44.664062 6.039062 -47.894531 6.3125 -50.875 C 6.582031 -53.863281 6.84375 -56.195312 7.09375 -57.875 C 7.175781 -58.625 7.320312 -59.382812 7.53125 -60.15625 C 7.738281 -60.9375 8.054688 -61.578125 8.484375 -62.078125 C 9.035156 -62.691406 9.726562 -63.300781 10.5625 -63.90625 C 11.394531 -64.507812 12.160156 -64.800781 12.859375 -64.78125 C 13.609375 -64.695312 14.40625 -64.328125 15.25 -63.671875 C 16.101562 -63.015625 16.6875 -62.335938 17 -61.640625 C 17.425781 -60.628906 17.703125 -59.539062 17.828125 -58.375 C 17.953125 -57.21875 18.019531 -56.082031 18.03125 -54.96875 Z M 18.03125 -54.96875 "/></g></g></g></g></g><g fill="#00bf63" fill-opacity="1"><g transform="translate(169.264052, 271.340901)"><g><path d="M 0.1875 -6.53125 C 0.132812 -6.738281 0.144531 -6.945312 0.21875 -7.15625 C 0.289062 -7.363281 0.40625 -7.546875 0.5625 -7.703125 C 0.726562 -7.867188 0.914062 -7.976562 1.125 -8.03125 C 1.207031 -8.050781 1.3125 -8.054688 1.4375 -8.046875 C 1.570312 -8.035156 1.703125 -8.003906 1.828125 -7.953125 C 1.960938 -7.910156 2.066406 -7.84375 2.140625 -7.75 C 2.210938 -7.65625 2.226562 -7.546875 2.1875 -7.421875 C 2.257812 -7.210938 2.25 -7 2.15625 -6.78125 C 2.0625 -6.570312 1.925781 -6.390625 1.75 -6.234375 C 1.570312 -6.085938 1.375 -5.984375 1.15625 -5.921875 C 0.945312 -5.867188 0.753906 -5.882812 0.578125 -5.96875 C 0.398438 -6.0625 0.269531 -6.25 0.1875 -6.53125 Z M 1.546875 -0.140625 C 1.316406 0.015625 1.09375 0.046875 0.875 -0.046875 C 0.664062 -0.148438 0.503906 -0.3125 0.390625 -0.53125 C 0.285156 -0.757812 0.21875 -1.015625 0.1875 -1.296875 C 0.15625 -1.585938 0.144531 -1.882812 0.15625 -2.1875 C 0.164062 -2.5 0.1875 -2.800781 0.21875 -3.09375 C 0.25 -3.394531 0.273438 -3.660156 0.296875 -3.890625 C 0.304688 -4.035156 0.316406 -4.203125 0.328125 -4.390625 C 0.347656 -4.585938 0.378906 -4.773438 0.421875 -4.953125 C 0.472656 -5.140625 0.550781 -5.289062 0.65625 -5.40625 C 0.800781 -5.5625 0.957031 -5.632812 1.125 -5.625 C 1.289062 -5.613281 1.445312 -5.550781 1.59375 -5.4375 C 1.75 -5.320312 1.863281 -5.179688 1.9375 -5.015625 C 2.113281 -4.640625 2.210938 -4.222656 2.234375 -3.765625 C 2.253906 -3.304688 2.234375 -2.84375 2.171875 -2.375 C 2.109375 -1.914062 2.039062 -1.492188 1.96875 -1.109375 C 1.9375 -0.929688 1.894531 -0.753906 1.84375 -0.578125 C 1.800781 -0.410156 1.703125 -0.265625 1.546875 -0.140625 Z M 1.546875 -0.140625 "/></g></g></g><g fill="#00bf63" fill-opacity="1"><g transform="translate(171.654345, 271.340901)"><g><path d="M 2.265625 -0.015625 C 1.960938 0.00390625 1.679688 -0.00390625 1.421875 -0.046875 C 1.160156 -0.0859375 0.9375 -0.191406 0.75 -0.359375 C 0.570312 -0.523438 0.445312 -0.769531 0.375 -1.09375 C 0.28125 -1.476562 0.222656 -1.878906 0.203125 -2.296875 C 0.191406 -2.722656 0.191406 -3.144531 0.203125 -3.5625 C 0.222656 -3.988281 0.222656 -4.398438 0.203125 -4.796875 C 0.203125 -5.015625 0.191406 -5.242188 0.171875 -5.484375 C 0.148438 -5.734375 0.148438 -5.976562 0.171875 -6.21875 C 0.191406 -6.457031 0.257812 -6.671875 0.375 -6.859375 C 0.476562 -7.023438 0.625 -7.144531 0.8125 -7.21875 C 1 -7.300781 1.203125 -7.351562 1.421875 -7.375 C 1.648438 -7.394531 1.875 -7.398438 2.09375 -7.390625 C 2.320312 -7.390625 2.519531 -7.390625 2.6875 -7.390625 C 2.914062 -7.398438 3.160156 -7.398438 3.421875 -7.390625 C 3.691406 -7.378906 3.945312 -7.34375 4.1875 -7.28125 C 4.4375 -7.226562 4.660156 -7.128906 4.859375 -6.984375 C 5.054688 -6.847656 5.207031 -6.648438 5.3125 -6.390625 C 5.425781 -6.109375 5.453125 -5.816406 5.390625 -5.515625 C 5.328125 -5.222656 5.207031 -4.941406 5.03125 -4.671875 C 4.863281 -4.410156 4.675781 -4.191406 4.46875 -4.015625 C 4.71875 -3.773438 4.882812 -3.484375 4.96875 -3.140625 C 5.050781 -2.796875 5.0625 -2.441406 5 -2.078125 C 4.9375 -1.722656 4.8125 -1.414062 4.625 -1.15625 C 4.351562 -0.78125 4 -0.507812 3.5625 -0.34375 C 3.132812 -0.175781 2.703125 -0.0664062 2.265625 -0.015625 Z M 1.8125 -4.75 C 1.832031 -4.738281 1.890625 -4.734375 1.984375 -4.734375 C 2.078125 -4.734375 2.171875 -4.738281 2.265625 -4.75 C 2.359375 -4.757812 2.414062 -4.765625 2.4375 -4.765625 C 2.582031 -4.773438 2.738281 -4.800781 2.90625 -4.84375 C 3.082031 -4.882812 3.210938 -4.976562 3.296875 -5.125 C 3.359375 -5.21875 3.351562 -5.300781 3.28125 -5.375 C 3.207031 -5.457031 3.097656 -5.519531 2.953125 -5.5625 C 2.804688 -5.613281 2.648438 -5.644531 2.484375 -5.65625 C 2.328125 -5.664062 2.179688 -5.65625 2.046875 -5.625 C 1.921875 -5.59375 1.84375 -5.535156 1.8125 -5.453125 C 1.800781 -5.429688 1.789062 -5.363281 1.78125 -5.25 C 1.78125 -5.144531 1.78125 -5.039062 1.78125 -4.9375 C 1.789062 -4.832031 1.800781 -4.769531 1.8125 -4.75 Z M 1.75 -1.5625 C 1.914062 -1.582031 2.101562 -1.613281 2.3125 -1.65625 C 2.53125 -1.707031 2.722656 -1.785156 2.890625 -1.890625 C 3.066406 -1.992188 3.179688 -2.144531 3.234375 -2.34375 C 3.273438 -2.53125 3.25 -2.671875 3.15625 -2.765625 C 3.070312 -2.859375 2.953125 -2.921875 2.796875 -2.953125 C 2.648438 -2.984375 2.507812 -2.992188 2.375 -2.984375 C 2.21875 -2.972656 2.085938 -2.957031 1.984375 -2.9375 C 1.890625 -2.914062 1.816406 -2.851562 1.765625 -2.75 C 1.722656 -2.675781 1.703125 -2.5625 1.703125 -2.40625 C 1.703125 -2.257812 1.710938 -2.101562 1.734375 -1.9375 C 1.753906 -1.78125 1.757812 -1.65625 1.75 -1.5625 Z M 1.75 -1.5625 "/></g></g></g><g fill="#00bf63" fill-opacity="1"><g transform="translate(177.221357, 271.340901)"><g><path d="M 5.78125 -0.046875 C 5.632812 -0.109375 5.523438 -0.203125 5.453125 -0.328125 C 5.390625 -0.460938 5.347656 -0.609375 5.328125 -0.765625 C 5.304688 -0.921875 5.296875 -1.0625 5.296875 -1.1875 C 5.265625 -1.570312 5.25 -1.957031 5.25 -2.34375 C 5.257812 -2.738281 5.234375 -3.128906 5.171875 -3.515625 C 5.046875 -3.378906 4.894531 -3.21875 4.71875 -3.03125 C 4.550781 -2.84375 4.367188 -2.675781 4.171875 -2.53125 C 3.984375 -2.394531 3.785156 -2.332031 3.578125 -2.34375 C 3.410156 -2.363281 3.257812 -2.425781 3.125 -2.53125 C 3 -2.644531 2.882812 -2.785156 2.78125 -2.953125 C 2.675781 -3.117188 2.582031 -3.285156 2.5 -3.453125 C 2.414062 -3.617188 2.335938 -3.765625 2.265625 -3.890625 C 2.140625 -3.617188 2.066406 -3.332031 2.046875 -3.03125 C 2.023438 -2.726562 2.007812 -2.421875 2 -2.109375 C 1.988281 -1.796875 1.957031 -1.488281 1.90625 -1.1875 C 1.851562 -0.894531 1.734375 -0.628906 1.546875 -0.390625 C 1.378906 -0.160156 1.179688 -0.046875 0.953125 -0.046875 C 0.734375 -0.046875 0.546875 -0.160156 0.390625 -0.390625 C 0.273438 -0.566406 0.203125 -0.765625 0.171875 -0.984375 C 0.148438 -1.203125 0.148438 -1.421875 0.171875 -1.640625 C 0.203125 -1.867188 0.226562 -2.078125 0.25 -2.265625 C 0.289062 -2.679688 0.335938 -3.097656 0.390625 -3.515625 C 0.453125 -3.929688 0.515625 -4.34375 0.578125 -4.75 C 0.609375 -4.988281 0.644531 -5.242188 0.6875 -5.515625 C 0.726562 -5.796875 0.832031 -6.035156 1 -6.234375 C 1.175781 -6.453125 1.363281 -6.578125 1.5625 -6.609375 C 1.757812 -6.640625 1.957031 -6.601562 2.15625 -6.5 C 2.363281 -6.40625 2.5625 -6.269531 2.75 -6.09375 C 2.9375 -5.925781 3.101562 -5.742188 3.25 -5.546875 C 3.40625 -5.359375 3.53125 -5.195312 3.625 -5.0625 C 3.71875 -5.195312 3.832031 -5.363281 3.96875 -5.5625 C 4.101562 -5.757812 4.253906 -5.953125 4.421875 -6.140625 C 4.597656 -6.328125 4.78125 -6.484375 4.96875 -6.609375 C 5.15625 -6.734375 5.347656 -6.796875 5.546875 -6.796875 C 5.753906 -6.804688 5.960938 -6.71875 6.171875 -6.53125 C 6.304688 -6.425781 6.398438 -6.289062 6.453125 -6.125 C 6.515625 -5.96875 6.554688 -5.800781 6.578125 -5.625 C 6.609375 -5.445312 6.640625 -5.28125 6.671875 -5.125 C 6.742188 -4.75 6.800781 -4.367188 6.84375 -3.984375 C 6.894531 -3.597656 6.925781 -3.210938 6.9375 -2.828125 C 6.945312 -2.734375 6.953125 -2.585938 6.953125 -2.390625 C 6.960938 -2.203125 6.957031 -1.988281 6.9375 -1.75 C 6.925781 -1.519531 6.898438 -1.285156 6.859375 -1.046875 C 6.816406 -0.816406 6.75 -0.613281 6.65625 -0.4375 C 6.570312 -0.257812 6.457031 -0.128906 6.3125 -0.046875 C 6.175781 0.0234375 6 0.0234375 5.78125 -0.046875 Z M 5.78125 -0.046875 "/></g></g></g><g fill="#00bf63" fill-opacity="1"><g transform="translate(184.330163, 271.340901)"><g><path d="M 1.71875 -0.015625 C 1.582031 -0.015625 1.429688 -0.0078125 1.265625 0 C 1.109375 0.0078125 0.957031 0 0.8125 -0.03125 C 0.664062 -0.0625 0.535156 -0.132812 0.421875 -0.25 C 0.296875 -0.375 0.21875 -0.519531 0.1875 -0.6875 C 0.15625 -0.863281 0.144531 -1.046875 0.15625 -1.234375 C 0.175781 -1.421875 0.191406 -1.59375 0.203125 -1.75 C 0.210938 -2.050781 0.222656 -2.347656 0.234375 -2.640625 C 0.253906 -2.929688 0.269531 -3.222656 0.28125 -3.515625 C 0.289062 -3.867188 0.304688 -4.21875 0.328125 -4.5625 C 0.347656 -4.914062 0.359375 -5.265625 0.359375 -5.609375 C 0.378906 -5.796875 0.378906 -6.003906 0.359375 -6.234375 C 0.347656 -6.472656 0.378906 -6.6875 0.453125 -6.875 C 0.503906 -7.050781 0.613281 -7.179688 0.78125 -7.265625 C 0.957031 -7.347656 1.160156 -7.398438 1.390625 -7.421875 C 1.617188 -7.453125 1.851562 -7.457031 2.09375 -7.4375 C 2.34375 -7.425781 2.578125 -7.40625 2.796875 -7.375 C 3.015625 -7.34375 3.191406 -7.316406 3.328125 -7.296875 C 3.484375 -7.273438 3.632812 -7.242188 3.78125 -7.203125 C 3.925781 -7.160156 4.046875 -7.09375 4.140625 -7 C 4.242188 -6.90625 4.304688 -6.765625 4.328125 -6.578125 C 4.359375 -6.378906 4.328125 -6.203125 4.234375 -6.046875 C 4.148438 -5.890625 4.015625 -5.773438 3.828125 -5.703125 C 3.691406 -5.640625 3.554688 -5.617188 3.421875 -5.640625 C 3.285156 -5.660156 3.144531 -5.6875 3 -5.71875 C 2.863281 -5.75 2.726562 -5.742188 2.59375 -5.703125 C 2.507812 -5.691406 2.425781 -5.632812 2.34375 -5.53125 C 2.269531 -5.4375 2.226562 -5.332031 2.21875 -5.21875 C 2.207031 -5.101562 2.257812 -5 2.375 -4.90625 C 2.457031 -4.84375 2.582031 -4.816406 2.75 -4.828125 C 2.914062 -4.835938 3.085938 -4.847656 3.265625 -4.859375 C 3.441406 -4.867188 3.585938 -4.851562 3.703125 -4.8125 C 3.878906 -4.75 4.003906 -4.660156 4.078125 -4.546875 C 4.148438 -4.429688 4.191406 -4.285156 4.203125 -4.109375 C 4.234375 -3.898438 4.210938 -3.6875 4.140625 -3.46875 C 4.078125 -3.25 3.929688 -3.101562 3.703125 -3.03125 C 3.554688 -3 3.40625 -3 3.25 -3.03125 C 3.09375 -3.070312 2.9375 -3.101562 2.78125 -3.125 C 2.632812 -3.144531 2.5 -3.097656 2.375 -2.984375 C 2.238281 -2.847656 2.179688 -2.722656 2.203125 -2.609375 C 2.222656 -2.503906 2.296875 -2.414062 2.421875 -2.34375 C 2.546875 -2.269531 2.679688 -2.210938 2.828125 -2.171875 C 2.984375 -2.128906 3.109375 -2.101562 3.203125 -2.09375 C 3.347656 -2.082031 3.503906 -2.082031 3.671875 -2.09375 C 3.847656 -2.101562 4.019531 -2.097656 4.1875 -2.078125 C 4.351562 -2.066406 4.5 -2.015625 4.625 -1.921875 C 4.738281 -1.835938 4.8125 -1.71875 4.84375 -1.5625 C 4.875 -1.414062 4.878906 -1.265625 4.859375 -1.109375 C 4.835938 -0.953125 4.804688 -0.8125 4.765625 -0.6875 C 4.660156 -0.4375 4.507812 -0.273438 4.3125 -0.203125 C 4.125 -0.128906 3.898438 -0.0859375 3.640625 -0.078125 C 3.316406 -0.0546875 2.992188 -0.046875 2.671875 -0.046875 C 2.359375 -0.046875 2.039062 -0.0351562 1.71875 -0.015625 Z M 1.71875 -0.015625 "/></g></g></g><g fill="#00bf63" fill-opacity="1"><g transform="translate(189.348752, 271.340901)"><g><path d="M 4.015625 -0.171875 C 3.816406 -0.0664062 3.585938 -0.0078125 3.328125 0 C 3.066406 0.0078125 2.800781 -0.00390625 2.53125 -0.046875 C 2.257812 -0.0976562 2.019531 -0.140625 1.8125 -0.171875 C 1.363281 -0.253906 0.992188 -0.40625 0.703125 -0.625 C 0.421875 -0.84375 0.253906 -1.191406 0.203125 -1.671875 C 0.160156 -2.097656 0.144531 -2.535156 0.15625 -2.984375 C 0.164062 -3.441406 0.171875 -3.882812 0.171875 -4.3125 C 0.171875 -4.5625 0.175781 -4.832031 0.1875 -5.125 C 0.195312 -5.414062 0.234375 -5.695312 0.296875 -5.96875 C 0.359375 -6.25 0.472656 -6.488281 0.640625 -6.6875 C 0.816406 -6.90625 1.007812 -7.023438 1.21875 -7.046875 C 1.4375 -7.066406 1.632812 -7.007812 1.8125 -6.875 C 1.988281 -6.75 2.113281 -6.5625 2.1875 -6.3125 C 2.289062 -6.019531 2.347656 -5.703125 2.359375 -5.359375 C 2.367188 -5.015625 2.363281 -4.671875 2.34375 -4.328125 C 2.332031 -3.992188 2.316406 -3.671875 2.296875 -3.359375 C 2.296875 -3.242188 2.285156 -3.125 2.265625 -3 C 2.242188 -2.875 2.242188 -2.75 2.265625 -2.625 C 2.285156 -2.476562 2.296875 -2.390625 2.296875 -2.359375 C 2.304688 -2.328125 2.332031 -2.316406 2.375 -2.328125 C 2.414062 -2.335938 2.5 -2.328125 2.625 -2.296875 C 2.800781 -2.273438 2.96875 -2.257812 3.125 -2.25 C 3.289062 -2.238281 3.453125 -2.222656 3.609375 -2.203125 C 3.765625 -2.179688 3.921875 -2.117188 4.078125 -2.015625 C 4.285156 -1.867188 4.421875 -1.671875 4.484375 -1.421875 C 4.554688 -1.179688 4.550781 -0.941406 4.46875 -0.703125 C 4.382812 -0.472656 4.234375 -0.296875 4.015625 -0.171875 Z M 4.015625 -0.171875 "/></g></g></g><g fill="#00bf63" fill-opacity="1"><g transform="translate(194.025872, 271.340901)"><g><path d="M 0.796875 -0.0625 C 0.523438 -0.132812 0.34375 -0.257812 0.25 -0.4375 C 0.164062 -0.625 0.132812 -0.835938 0.15625 -1.078125 C 0.175781 -1.316406 0.21875 -1.554688 0.28125 -1.796875 C 0.351562 -2.035156 0.410156 -2.25 0.453125 -2.4375 C 0.578125 -2.957031 0.710938 -3.46875 0.859375 -3.96875 C 1.015625 -4.476562 1.175781 -4.984375 1.34375 -5.484375 C 1.476562 -5.910156 1.675781 -6.257812 1.9375 -6.53125 C 2.207031 -6.800781 2.582031 -6.941406 3.0625 -6.953125 C 3.332031 -6.960938 3.550781 -6.898438 3.71875 -6.765625 C 3.894531 -6.628906 4.035156 -6.453125 4.140625 -6.234375 C 4.253906 -6.015625 4.347656 -5.78125 4.421875 -5.53125 C 4.492188 -5.289062 4.566406 -5.070312 4.640625 -4.875 L 5.859375 -1.453125 C 5.941406 -1.234375 5.976562 -1.03125 5.96875 -0.84375 C 5.957031 -0.664062 5.851562 -0.492188 5.65625 -0.328125 C 5.457031 -0.171875 5.265625 -0.0976562 5.078125 -0.109375 C 4.890625 -0.128906 4.722656 -0.242188 4.578125 -0.453125 C 4.503906 -0.554688 4.445312 -0.6875 4.40625 -0.84375 C 4.363281 -1.007812 4.316406 -1.164062 4.265625 -1.3125 C 4.210938 -1.46875 4.140625 -1.582031 4.046875 -1.65625 C 4.023438 -1.664062 3.9375 -1.675781 3.78125 -1.6875 C 3.625 -1.707031 3.441406 -1.722656 3.234375 -1.734375 C 3.035156 -1.742188 2.851562 -1.742188 2.6875 -1.734375 C 2.519531 -1.734375 2.414062 -1.71875 2.375 -1.6875 C 2.28125 -1.601562 2.210938 -1.472656 2.171875 -1.296875 C 2.128906 -1.117188 2.09375 -0.929688 2.0625 -0.734375 C 2.03125 -0.546875 1.972656 -0.398438 1.890625 -0.296875 C 1.765625 -0.140625 1.597656 -0.046875 1.390625 -0.015625 C 1.179688 0.00390625 0.984375 -0.0078125 0.796875 -0.0625 Z M 2.84375 -3.15625 C 2.945312 -3.175781 3.046875 -3.195312 3.140625 -3.21875 C 3.234375 -3.238281 3.320312 -3.253906 3.40625 -3.265625 C 3.351562 -3.398438 3.304688 -3.535156 3.265625 -3.671875 C 3.222656 -3.816406 3.179688 -3.957031 3.140625 -4.09375 C 3.085938 -3.9375 3.035156 -3.78125 2.984375 -3.625 C 2.941406 -3.46875 2.894531 -3.3125 2.84375 -3.15625 Z M 2.84375 -3.15625 "/></g></g></g><g fill="#00bf63" fill-opacity="1"><g transform="translate(200.151654, 271.340901)"><g><path d="M 2.265625 -0.015625 C 1.960938 0.00390625 1.679688 -0.00390625 1.421875 -0.046875 C 1.160156 -0.0859375 0.9375 -0.191406 0.75 -0.359375 C 0.570312 -0.523438 0.445312 -0.769531 0.375 -1.09375 C 0.28125 -1.476562 0.222656 -1.878906 0.203125 -2.296875 C 0.191406 -2.722656 0.191406 -3.144531 0.203125 -3.5625 C 0.222656 -3.988281 0.222656 -4.398438 0.203125 -4.796875 C 0.203125 -5.015625 0.191406 -5.242188 0.171875 -5.484375 C 0.148438 -5.734375 0.148438 -5.976562 0.171875 -6.21875 C 0.191406 -6.457031 0.257812 -6.671875 0.375 -6.859375 C 0.476562 -7.023438 0.625 -7.144531 0.8125 -7.21875 C 1 -7.300781 1.203125 -7.351562 1.421875 -7.375 C 1.648438 -7.394531 1.875 -7.398438 2.09375 -7.390625 C 2.320312 -7.390625 2.519531 -7.390625 2.6875 -7.390625 C 2.914062 -7.398438 3.160156 -7.398438 3.421875 -7.390625 C 3.691406 -7.378906 3.945312 -7.34375 4.1875 -7.28125 C 4.4375 -7.226562 4.660156 -7.128906 4.859375 -6.984375 C 5.054688 -6.847656 5.207031 -6.648438 5.3125 -6.390625 C 5.425781 -6.109375 5.453125 -5.816406 5.390625 -5.515625 C 5.328125 -5.222656 5.207031 -4.941406 5.03125 -4.671875 C 4.863281 -4.410156 4.675781 -4.191406 4.46875 -4.015625 C 4.71875 -3.773438 4.882812 -3.484375 4.96875 -3.140625 C 5.050781 -2.796875 5.0625 -2.441406 5 -2.078125 C 4.9375 -1.722656 4.8125 -1.414062 4.625 -1.15625 C 4.351562 -0.78125 4 -0.507812 3.5625 -0.34375 C 3.132812 -0.175781 2.703125 -0.0664062 2.265625 -0.015625 Z M 1.8125 -4.75 C 1.832031 -4.738281 1.890625 -4.734375 1.984375 -4.734375 C 2.078125 -4.734375 2.171875 -4.738281 2.265625 -4.75 C 2.359375 -4.757812 2.414062 -4.765625 2.4375 -4.765625 C 2.582031 -4.773438 2.738281 -4.800781 2.90625 -4.84375 C 3.082031 -4.882812 3.210938 -4.976562 3.296875 -5.125 C 3.359375 -5.21875 3.351562 -5.300781 3.28125 -5.375 C 3.207031 -5.457031 3.097656 -5.519531 2.953125 -5.5625 C 2.804688 -5.613281 2.648438 -5.644531 2.484375 -5.65625 C 2.328125 -5.664062 2.179688 -5.65625 2.046875 -5.625 C 1.921875 -5.59375 1.84375 -5.535156 1.8125 -5.453125 C 1.800781 -5.429688 1.789062 -5.363281 1.78125 -5.25 C 1.78125 -5.144531 1.78125 -5.039062 1.78125 -4.9375 C 1.789062 -4.832031 1.800781 -4.769531 1.8125 -4.75 Z M 1.75 -1.5625 C 1.914062 -1.582031 2.101562 -1.613281 2.3125 -1.65625 C 2.53125 -1.707031 2.722656 -1.785156 2.890625 -1.890625 C 3.066406 -1.992188 3.179688 -2.144531 3.234375 -2.34375 C 3.273438 -2.53125 3.25 -2.671875 3.15625 -2.765625 C 3.070312 -2.859375 2.953125 -2.921875 2.796875 -2.953125 C 2.648438 -2.984375 2.507812 -2.992188 2.375 -2.984375 C 2.21875 -2.972656 2.085938 -2.957031 1.984375 -2.9375 C 1.890625 -2.914062 1.816406 -2.851562 1.765625 -2.75 C 1.722656 -2.675781 1.703125 -2.5625 1.703125 -2.40625 C 1.703125 -2.257812 1.710938 -2.101562 1.734375 -1.9375 C 1.753906 -1.78125 1.757812 -1.65625 1.75 -1.5625 Z M 1.75 -1.5625 "/></g></g></g></svg>